<svg width="306" height="319" viewBox="0 0 306 319" fill="none" xmlns="http://www.w3.org/2000/svg">
<path opacity="0.5" d="M136.831 182.503C134.401 191.687 134.054 210.575 134.054 210.575L121.038 206.762L110.452 190.994C114.979 185.547 119.91 180.449 125.204 175.745C131.522 170.564 138.389 166.09 145.682 162.401C142.103 168.808 139.139 175.539 136.831 182.503Z" fill="url(#paint0_linear_145_194)"/>
<path fill-rule="evenodd" clip-rule="evenodd" d="M76.7845 213.347L70.7104 211.787C25.9357 200.524 0.251038 181.29 0.251038 159.282C0.251038 137.102 25.9357 117.868 70.7104 106.604L76.7845 105.045L78.3464 111.11C82.9941 126.652 88.795 141.828 95.7009 156.51L97.0893 159.282L95.7009 161.881C88.7197 176.59 82.9167 191.83 78.3464 207.455L76.7845 213.347ZM68.1072 120.467C34.0924 129.997 13.2669 144.553 13.2669 159.109C13.2669 173.665 34.0924 188.221 68.1072 197.925C72.2806 184.693 77.265 171.73 83.0321 159.109C77.2598 146.549 72.2753 133.644 68.1072 120.467ZM229.331 213.347L227.595 207.282C223.13 191.678 217.325 176.488 210.241 161.881L209.026 159.109L210.241 156.51C217.297 141.832 223.102 126.587 227.595 110.936L229.331 105.045L235.405 106.604C280.179 117.868 305.864 137.102 305.864 159.109C305.864 181.29 280.179 200.524 235.405 211.787L229.331 213.347ZM223.083 159.109C228.949 171.688 233.935 184.658 238.008 197.925C272.023 188.394 293.022 173.665 293.022 159.109C293.022 144.553 272.196 129.997 238.008 120.467C233.879 133.658 228.893 146.566 223.083 159.109Z" fill="#00A3FF"/>
<path fill-rule="evenodd" clip-rule="evenodd" d="M67.7603 120.467L66.1984 114.402C53.5296 70.2146 57.3476 38.5039 76.6111 27.4139C95.5275 16.4971 125.724 29.32 157.483 61.8971L161.822 66.4024L157.483 70.7345C146.251 82.4877 135.979 95.1199 126.766 108.51L125.03 110.936L122.08 111.109C105.823 112.482 89.6947 115.089 73.8344 118.907L67.7603 120.467ZM92.0566 36.2513C88.8996 36.1714 85.7802 36.9501 83.0323 38.5039C70.3635 45.6085 68.1074 70.9078 76.7846 105.044C90.3408 102.055 104.081 99.9714 117.915 98.8063C125.931 87.4445 134.685 76.62 144.12 66.4024C124.162 47.1681 105.42 36.2513 92.0566 36.2513ZM213.885 294.963C195.837 294.963 172.582 281.273 148.459 256.494L144.12 251.989L148.459 247.657C159.691 235.903 169.963 223.271 179.176 209.881L180.912 207.455L183.862 207.109C200.125 205.878 216.259 203.329 232.108 199.484L238.182 197.925L239.744 203.816C252.412 248.177 248.594 279.887 229.331 290.977C224.602 293.585 219.288 294.958 213.885 294.963ZM161.822 251.989C181.779 271.223 200.522 282.14 213.885 282.14C217.021 282.218 220.126 281.502 222.91 280.06C235.578 272.783 237.835 247.31 229.157 213.173C215.61 216.251 201.869 218.393 188.027 219.585C180.011 230.945 171.257 241.77 161.822 251.989Z" fill="#00A3FF"/>
<path fill-rule="evenodd" clip-rule="evenodd" d="M152.971 221.144C142.558 221.144 131.798 220.798 120.865 219.931L117.914 219.585L116.179 217.159C110.163 208.379 104.436 199.368 98.998 190.127C93.6758 181 88.7588 171.585 84.2466 161.881L83.0318 159.282L84.2466 156.509C88.7588 146.805 93.6758 137.333 98.998 128.091C104.378 119.08 110.105 110.07 116.179 101.232L117.914 98.8062L120.865 98.4597C142.175 96.7268 163.592 96.7268 184.903 98.4597L188.027 98.8062L189.589 101.232C201.817 118.731 212.557 137.221 221.694 156.509L222.909 159.282L221.694 161.881C212.623 181.204 201.881 199.701 189.589 217.159L188.027 219.585L184.903 219.931C174.143 220.798 163.383 221.144 152.971 221.144ZM125.03 207.455C143.631 208.841 162.31 208.841 180.911 207.455C191.449 192.137 200.791 176.032 208.852 159.282C200.831 142.456 191.487 126.29 180.911 110.936C162.31 109.55 143.631 109.55 125.03 110.936C114.454 126.29 105.111 142.456 97.089 159.282C105.217 175.996 114.555 192.097 125.03 207.455Z" fill="#00A3FF"/>
<path fill-rule="evenodd" clip-rule="evenodd" d="M83.2056 318.183C77.7922 318.261 72.4573 316.885 67.7601 314.198C48.4966 303.281 44.6786 271.397 57.3474 227.21L58.9093 221.145L64.9834 222.704C80.81 226.686 96.9522 229.296 113.229 230.502L116.179 230.675L117.741 233.275C127.026 246.603 137.355 259.177 148.632 270.877L152.971 275.382L148.632 279.714C124.509 304.494 101.254 318.183 83.2056 318.183ZM67.9337 236.567C59.2564 270.704 61.5125 296.003 74.1813 303.281C86.6765 310.385 110.279 299.468 135.269 275.209C125.808 265.074 117.053 254.306 109.064 242.978C95.2335 241.698 81.4967 239.556 67.9337 236.567Z" fill="#00A3FF"/>
<path fill-rule="evenodd" clip-rule="evenodd" d="M248.768 97.2468L242.693 95.6873C226.923 91.715 210.839 89.106 194.621 87.8896L191.498 87.7163L189.936 85.1171C180.651 71.787 170.321 59.2134 159.045 47.5148L154.706 43.0094L159.045 38.6774C190.803 6.1003 221 -6.72265 239.917 4.19415C259.18 15.2842 262.998 46.9949 250.503 91.182L248.768 97.2468ZM198.613 75.5865C212.448 76.8276 226.188 78.9692 239.743 81.998C248.42 47.8613 246.164 22.5621 233.496 15.2843C221 8.0064 197.398 19.0964 172.408 43.356C181.869 53.4901 190.625 64.2587 198.613 75.5865Z" fill="#00A3FF"/>
<path d="M148.806 153.217L148.285 154.257C149.153 155.47 147.417 157.896 146.203 158.762L141.343 162.747C140.774 163.165 140.072 163.359 139.369 163.296C138.666 163.232 138.01 162.914 137.525 162.401L135.79 160.321C135.357 159.745 135.168 159.022 135.266 158.309C135.363 157.595 135.739 156.948 136.311 156.509L141.17 152.524C142.211 151.657 147.938 152.004 148.806 153.217Z" fill="#00A3FF"/>
<path d="M154.359 168.986L149.5 172.971C148.961 173.383 148.286 173.577 147.61 173.512C146.934 173.448 146.307 173.131 145.856 172.625L144.12 170.545C143.693 169.967 143.508 169.245 143.605 168.534C143.702 167.822 144.074 167.176 144.641 166.733L149.5 162.921C150.715 161.881 153.492 160.668 154.359 161.881L155.574 161.361C156.442 162.401 155.574 167.946 154.359 168.986Z" fill="#00A3FF"/>
<path d="M166.855 136.582L171.714 132.597C174.664 130.171 183.515 126.878 185.945 129.824C188.201 132.597 183.168 140.741 180.218 142.994L175.358 146.979C173.947 148.088 172.158 148.601 170.373 148.407C168.588 148.212 166.951 147.326 165.813 145.939C165.264 145.258 164.854 144.475 164.609 143.635C164.364 142.794 164.287 141.914 164.384 141.045C164.48 140.175 164.749 139.333 165.173 138.567C165.597 137.801 166.168 137.127 166.855 136.582Z" fill="#00A3FF"/>
<path d="M164.077 140.22L163.73 140.74C164.251 141.433 163.21 142.82 162.516 143.513L159.739 145.765C159.414 146.036 158.997 146.169 158.576 146.136C158.154 146.104 157.762 145.909 157.483 145.592L156.441 144.379C156.171 144.055 156.038 143.638 156.07 143.218C156.103 142.797 156.298 142.405 156.615 142.126L159.565 139.701C160.314 139.482 161.099 139.415 161.874 139.504C162.649 139.593 163.398 139.837 164.077 140.22Z" fill="#00A3FF"/>
<path d="M170.499 153.564L168.069 155.47C167.941 155.601 167.785 155.702 167.613 155.765C167.44 155.828 167.256 155.852 167.074 155.836C166.891 155.819 166.714 155.762 166.556 155.669C166.398 155.576 166.263 155.449 166.16 155.297L165.292 154.257C165.067 153.979 164.959 153.625 164.992 153.269C165.024 152.913 165.194 152.584 165.466 152.351L167.896 150.272C168.59 149.925 169.978 149.232 170.499 149.752L171.019 149.579C171.239 150.239 171.305 150.941 171.215 151.631C171.125 152.321 170.88 152.982 170.499 153.564Z" fill="#00A3FF"/>
<path d="M172.061 132.25L180.564 142.647L144.988 171.585L136.484 161.015L172.061 132.25Z" fill="#00A3FF"/>
<path d="M148.285 151.484L156.789 161.881L144.988 171.585L136.484 161.015L148.285 151.484Z" fill="#00A3FF"/>
<defs>
<linearGradient id="paint0_linear_145_194" x1="122.254" y1="204.697" x2="151.243" y2="175.292" gradientUnits="userSpaceOnUse">
<stop stop-color="#00A3FF"/>
<stop offset="1" stop-color="#00A3FF"/>
</linearGradient>
</defs>
</svg>
